<mxfile host="app.diagrams.net" modified="2022-09-29T04:35:15.011Z" agent="5.0 (Windows NT 10.0; Win64; x64) AppleWebKit/537.36 (KHTML, like Gecko) Chrome/104.0.5112.102 Safari/537.36 OPR/90.0.4480.117" etag="YI_lYlzdkSTF-JbSJbtM" version="20.3.7" type="github">
  <diagram id="eU5cjns71zuXlxmMYgX5" name="Page-1">
    <mxGraphModel dx="3109" dy="1765" grid="1" gridSize="10" guides="1" tooltips="1" connect="1" arrows="1" fold="1" page="1" pageScale="1" pageWidth="3000" pageHeight="2000" math="0" shadow="0">
      <root>
        <mxCell id="0" />
        <mxCell id="1" parent="0" />
        <mxCell id="TFUhJYToad7Svwmn0-4R-7" style="edgeStyle=orthogonalEdgeStyle;rounded=0;orthogonalLoop=1;jettySize=auto;html=1;entryX=0.5;entryY=0;entryDx=0;entryDy=0;fontFamily=Tahoma;fontSize=16;" edge="1" parent="1" source="TFUhJYToad7Svwmn0-4R-2" target="TFUhJYToad7Svwmn0-4R-3">
          <mxGeometry relative="1" as="geometry" />
        </mxCell>
        <mxCell id="TFUhJYToad7Svwmn0-4R-2" value="&lt;font face=&quot;Tahoma&quot; style=&quot;font-size: 16px;&quot;&gt;เริ่มต้น&lt;/font&gt;" style="rounded=1;whiteSpace=wrap;html=1;" vertex="1" parent="1">
          <mxGeometry x="70" y="80" width="120" height="60" as="geometry" />
        </mxCell>
        <mxCell id="TFUhJYToad7Svwmn0-4R-8" style="edgeStyle=orthogonalEdgeStyle;rounded=0;orthogonalLoop=1;jettySize=auto;html=1;fontFamily=Tahoma;fontSize=16;" edge="1" parent="1" source="TFUhJYToad7Svwmn0-4R-3" target="TFUhJYToad7Svwmn0-4R-4">
          <mxGeometry relative="1" as="geometry" />
        </mxCell>
        <mxCell id="TFUhJYToad7Svwmn0-4R-3" value="&lt;font face=&quot;Tahoma&quot; style=&quot;font-size: 16px;&quot;&gt;รับ id, password&lt;/font&gt;" style="rounded=1;whiteSpace=wrap;html=1;" vertex="1" parent="1">
          <mxGeometry x="60" y="220" width="140" height="60" as="geometry" />
        </mxCell>
        <mxCell id="TFUhJYToad7Svwmn0-4R-9" style="edgeStyle=orthogonalEdgeStyle;rounded=0;orthogonalLoop=1;jettySize=auto;html=1;fontFamily=Tahoma;fontSize=16;" edge="1" parent="1" source="TFUhJYToad7Svwmn0-4R-4" target="TFUhJYToad7Svwmn0-4R-5">
          <mxGeometry relative="1" as="geometry" />
        </mxCell>
        <mxCell id="TFUhJYToad7Svwmn0-4R-10" style="edgeStyle=orthogonalEdgeStyle;rounded=0;orthogonalLoop=1;jettySize=auto;html=1;entryX=0;entryY=0.5;entryDx=0;entryDy=0;fontFamily=Tahoma;fontSize=16;" edge="1" parent="1" source="TFUhJYToad7Svwmn0-4R-4" target="TFUhJYToad7Svwmn0-4R-6">
          <mxGeometry relative="1" as="geometry" />
        </mxCell>
        <mxCell id="TFUhJYToad7Svwmn0-4R-4" value="&lt;font face=&quot;Tahoma&quot; style=&quot;font-size: 16px;&quot;&gt;เข้าสู่เว็บไซต์&lt;/font&gt;" style="rounded=1;whiteSpace=wrap;html=1;" vertex="1" parent="1">
          <mxGeometry x="60" y="360" width="140" height="60" as="geometry" />
        </mxCell>
        <mxCell id="TFUhJYToad7Svwmn0-4R-12" style="edgeStyle=orthogonalEdgeStyle;rounded=0;orthogonalLoop=1;jettySize=auto;html=1;fontFamily=Tahoma;fontSize=16;" edge="1" parent="1" source="TFUhJYToad7Svwmn0-4R-5" target="TFUhJYToad7Svwmn0-4R-11">
          <mxGeometry relative="1" as="geometry" />
        </mxCell>
        <mxCell id="TFUhJYToad7Svwmn0-4R-5" value="&lt;font face=&quot;Tahoma&quot;&gt;&lt;span style=&quot;font-size: 16px;&quot;&gt;front page&lt;/span&gt;&lt;/font&gt;" style="rounded=1;whiteSpace=wrap;html=1;" vertex="1" parent="1">
          <mxGeometry x="300" y="360" width="140" height="60" as="geometry" />
        </mxCell>
        <mxCell id="TFUhJYToad7Svwmn0-4R-18" style="edgeStyle=orthogonalEdgeStyle;rounded=0;orthogonalLoop=1;jettySize=auto;html=1;fontFamily=Tahoma;fontSize=16;" edge="1" parent="1" source="TFUhJYToad7Svwmn0-4R-6" target="TFUhJYToad7Svwmn0-4R-13">
          <mxGeometry relative="1" as="geometry" />
        </mxCell>
        <mxCell id="TFUhJYToad7Svwmn0-4R-21" style="edgeStyle=orthogonalEdgeStyle;rounded=0;orthogonalLoop=1;jettySize=auto;html=1;entryX=0;entryY=0.5;entryDx=0;entryDy=0;fontFamily=Tahoma;fontSize=16;" edge="1" parent="1" source="TFUhJYToad7Svwmn0-4R-6" target="TFUhJYToad7Svwmn0-4R-14">
          <mxGeometry relative="1" as="geometry" />
        </mxCell>
        <mxCell id="TFUhJYToad7Svwmn0-4R-6" value="&lt;font face=&quot;Tahoma&quot;&gt;&lt;span style=&quot;font-size: 16px;&quot;&gt;admin page&lt;/span&gt;&lt;/font&gt;" style="rounded=1;whiteSpace=wrap;html=1;" vertex="1" parent="1">
          <mxGeometry x="300" y="490" width="140" height="60" as="geometry" />
        </mxCell>
        <mxCell id="TFUhJYToad7Svwmn0-4R-11" value="&lt;font face=&quot;Tahoma&quot;&gt;&lt;span style=&quot;font-size: 16px;&quot;&gt;framework template&lt;/span&gt;&lt;/font&gt;" style="rounded=1;whiteSpace=wrap;html=1;" vertex="1" parent="1">
          <mxGeometry x="550" y="360" width="140" height="60" as="geometry" />
        </mxCell>
        <mxCell id="TFUhJYToad7Svwmn0-4R-19" style="edgeStyle=orthogonalEdgeStyle;rounded=0;orthogonalLoop=1;jettySize=auto;html=1;exitX=1;exitY=0.5;exitDx=0;exitDy=0;entryX=0;entryY=0.5;entryDx=0;entryDy=0;fontFamily=Tahoma;fontSize=16;" edge="1" parent="1" source="TFUhJYToad7Svwmn0-4R-13" target="TFUhJYToad7Svwmn0-4R-15">
          <mxGeometry relative="1" as="geometry" />
        </mxCell>
        <mxCell id="TFUhJYToad7Svwmn0-4R-13" value="&lt;font face=&quot;Tahoma&quot;&gt;&lt;span style=&quot;font-size: 16px;&quot;&gt;dashboard&lt;/span&gt;&lt;/font&gt;" style="rounded=1;whiteSpace=wrap;html=1;" vertex="1" parent="1">
          <mxGeometry x="550" y="490" width="140" height="60" as="geometry" />
        </mxCell>
        <mxCell id="TFUhJYToad7Svwmn0-4R-14" value="&lt;font face=&quot;Tahoma&quot;&gt;&lt;span style=&quot;font-size: 16px;&quot;&gt;stock สินค้า&lt;/span&gt;&lt;/font&gt;" style="rounded=1;whiteSpace=wrap;html=1;" vertex="1" parent="1">
          <mxGeometry x="550" y="640" width="140" height="60" as="geometry" />
        </mxCell>
        <mxCell id="TFUhJYToad7Svwmn0-4R-20" style="edgeStyle=orthogonalEdgeStyle;rounded=0;orthogonalLoop=1;jettySize=auto;html=1;exitX=1;exitY=0.5;exitDx=0;exitDy=0;fontFamily=Tahoma;fontSize=16;" edge="1" parent="1" source="TFUhJYToad7Svwmn0-4R-15" target="TFUhJYToad7Svwmn0-4R-16">
          <mxGeometry relative="1" as="geometry" />
        </mxCell>
        <mxCell id="TFUhJYToad7Svwmn0-4R-15" value="&lt;font face=&quot;Tahoma&quot;&gt;&lt;span style=&quot;font-size: 16px;&quot;&gt;add product&lt;/span&gt;&lt;/font&gt;" style="rounded=1;whiteSpace=wrap;html=1;" vertex="1" parent="1">
          <mxGeometry x="790" y="490" width="140" height="60" as="geometry" />
        </mxCell>
        <mxCell id="TFUhJYToad7Svwmn0-4R-22" style="edgeStyle=orthogonalEdgeStyle;rounded=0;orthogonalLoop=1;jettySize=auto;html=1;fontFamily=Tahoma;fontSize=16;" edge="1" parent="1" source="TFUhJYToad7Svwmn0-4R-16" target="TFUhJYToad7Svwmn0-4R-17">
          <mxGeometry relative="1" as="geometry" />
        </mxCell>
        <mxCell id="TFUhJYToad7Svwmn0-4R-16" value="&lt;font face=&quot;Tahoma&quot;&gt;&lt;span style=&quot;font-size: 16px;&quot;&gt;input product detail&lt;/span&gt;&lt;/font&gt;" style="rounded=1;whiteSpace=wrap;html=1;" vertex="1" parent="1">
          <mxGeometry x="1030" y="490" width="160" height="60" as="geometry" />
        </mxCell>
        <mxCell id="TFUhJYToad7Svwmn0-4R-17" value="&lt;div style=&quot;text-align: left;&quot;&gt;&lt;span style=&quot;font-size: 16px; font-family: Tahoma; background-color: initial;&quot;&gt;detail&lt;/span&gt;&lt;/div&gt;&lt;font face=&quot;Tahoma&quot;&gt;&lt;div style=&quot;text-align: left;&quot;&gt;&lt;span style=&quot;font-size: 16px; background-color: initial;&quot;&gt;- product image&lt;/span&gt;&lt;/div&gt;&lt;span style=&quot;font-size: 16px;&quot;&gt;&lt;div style=&quot;text-align: left;&quot;&gt;&lt;span style=&quot;background-color: initial;&quot;&gt;- product name&lt;/span&gt;&lt;/div&gt;&lt;div style=&quot;text-align: left;&quot;&gt;&lt;span style=&quot;background-color: initial;&quot;&gt;- price&lt;/span&gt;&lt;/div&gt;&lt;div style=&quot;text-align: left;&quot;&gt;&lt;span style=&quot;background-color: initial;&quot;&gt;- stock&lt;/span&gt;&lt;/div&gt;&lt;div style=&quot;text-align: left;&quot;&gt;&lt;span style=&quot;background-color: initial;&quot;&gt;- category&lt;/span&gt;&lt;/div&gt;&lt;div style=&quot;text-align: left;&quot;&gt;&lt;span style=&quot;background-color: initial;&quot;&gt;- product detail&lt;/span&gt;&lt;/div&gt;&lt;div style=&quot;text-align: left;&quot;&gt;&lt;span style=&quot;background-color: initial;&quot;&gt;- expiration date&lt;/span&gt;&lt;/div&gt;&lt;div style=&quot;text-align: left;&quot;&gt;&lt;span style=&quot;background-color: initial;&quot;&gt;- promotion&lt;/span&gt;&lt;/div&gt;&lt;/span&gt;&lt;/font&gt;" style="rounded=1;whiteSpace=wrap;html=1;" vertex="1" parent="1">
          <mxGeometry x="1030" y="200" width="160" height="230" as="geometry" />
        </mxCell>
        <mxCell id="TFUhJYToad7Svwmn0-4R-23" value="&lt;font face=&quot;Tahoma&quot;&gt;&lt;span style=&quot;font-size: 16px;&quot;&gt;submit&lt;/span&gt;&lt;/font&gt;" style="rounded=1;whiteSpace=wrap;html=1;" vertex="1" parent="1">
          <mxGeometry x="1280" y="490" width="140" height="60" as="geometry" />
        </mxCell>
      </root>
    </mxGraphModel>
  </diagram>
</mxfile>
